<svg xmlns="http://www.w3.org/2000/svg" xmlns:xlink="http://www.w3.org/1999/xlink" width="150" zoomAndPan="magnify" viewBox="0 0 112.5 56.249996" height="75" preserveAspectRatio="xMidYMid meet" version="1.0"><defs><clipPath id="e30118abfc"><path d="M 0.492188 0 L 111.511719 0 L 111.511719 55.511719 L 0.492188 55.511719 Z M 0.492188 0 " clip-rule="nonzero"/></clipPath><clipPath id="304561e4e1"><path d="M 5.40625 0 L 106.84375 0 C 108.144531 0 109.394531 0.515625 110.316406 1.4375 C 111.238281 2.359375 111.757812 3.609375 111.757812 4.914062 L 111.757812 50.597656 C 111.757812 51.898438 111.238281 53.148438 110.316406 54.070312 C 109.394531 54.992188 108.144531 55.511719 106.84375 55.511719 L 5.40625 55.511719 C 4.101562 55.511719 2.851562 54.992188 1.933594 54.070312 C 1.011719 53.148438 0.492188 51.898438 0.492188 50.597656 L 0.492188 4.914062 C 0.492188 3.609375 1.011719 2.359375 1.933594 1.4375 C 2.851562 0.515625 4.101562 0 5.40625 0 Z M 5.40625 0 " clip-rule="nonzero"/></clipPath><clipPath id="e7e21799c1"><path d="M 18 18 L 105.738281 18 L 105.738281 49.957031 L 18 49.957031 Z M 18 18 " clip-rule="nonzero"/></clipPath><clipPath id="7a2586c11f"><path d="M 11 15 L 48 15 L 48 49.957031 L 11 49.957031 Z M 11 15 " clip-rule="nonzero"/></clipPath><clipPath id="20f4278df7"><path d="M 6.5625 5.550781 L 44 5.550781 L 44 46 L 6.5625 46 Z M 6.5625 5.550781 " clip-rule="nonzero"/></clipPath></defs><g clip-path="url(#e30118abfc)"><g clip-path="url(#304561e4e1)"><path fill="#0367eb" d="M 0.492188 0 L 111.757812 0 L 111.757812 55.511719 L 0.492188 55.511719 Z M 0.492188 0 " fill-opacity="1" fill-rule="nonzero"/></g></g><path fill="#ffffff" d="M 25.273438 32.664062 L 25.273438 32.597656 L 25.207031 32.597656 L 24.855469 32.53125 Z M 25.273438 32.664062 " fill-opacity="1" fill-rule="nonzero"/><g clip-path="url(#e7e21799c1)"><path fill="#000000" d="M 45.425781 43.398438 C 45.84375 43.398438 46.214844 43.574219 46.457031 43.945312 L 47.070312 43.574219 C 46.699219 42.960938 46.148438 42.675781 45.425781 42.675781 C 44.921875 42.675781 44.503906 42.785156 44.199219 43.09375 C 43.78125 43.398438 43.585938 43.769531 43.585938 44.253906 C 43.585938 44.90625 44.089844 45.390625 44.988281 45.824219 L 45.425781 46 C 46.085938 46.308594 46.457031 46.679688 46.457031 47.160156 L 46.148438 48.011719 L 45.292969 48.363281 L 44.441406 48.078125 L 44.132812 47.226562 L 43.34375 47.398438 C 43.410156 47.902344 43.582031 48.316406 43.957031 48.625 C 44.328125 48.910156 44.746094 49.105469 45.226562 49.105469 C 45.777344 49.105469 46.257812 48.910156 46.699219 48.558594 L 47.246094 47.160156 C 47.246094 46.371094 46.761719 45.761719 45.710938 45.34375 L 45.226562 45.148438 C 44.679688 44.90625 44.371094 44.601562 44.371094 44.253906 C 44.371094 44.011719 44.503906 43.816406 44.746094 43.640625 Z M 49.789062 43.507812 L 51.257812 43.507812 L 51.257812 42.785156 L 47.488281 42.785156 L 47.488281 43.507812 L 49 43.507812 L 49 48.972656 L 49.789062 48.972656 Z M 56.304688 46.746094 L 56.304688 42.785156 L 55.515625 42.785156 L 55.515625 46.4375 C 55.515625 47.707031 55.011719 48.363281 54 48.363281 C 53.015625 48.363281 52.53125 47.707031 52.53125 46.4375 L 52.53125 42.785156 L 51.742188 42.785156 L 51.742188 46.746094 C 51.742188 47.398438 51.917969 48.011719 52.355469 48.449219 C 52.773438 48.867188 53.320312 49.105469 54 49.105469 C 54.722656 49.105469 55.273438 48.867188 55.6875 48.449219 C 56.105469 48.011719 56.304688 47.398438 56.304688 46.746094 M 58.628906 42.785156 L 57.292969 42.785156 L 57.292969 48.972656 L 58.5625 48.972656 L 58.386719 48.253906 L 58.082031 48.253906 L 58.082031 43.507812 L 58.386719 43.507812 C 60.316406 43.507812 61.304688 44.316406 61.304688 45.890625 C 61.304688 47.464844 60.316406 48.253906 58.386719 48.253906 L 58.5625 48.972656 C 59.59375 48.972656 60.449219 48.734375 61.042969 48.1875 C 61.722656 47.640625 62.09375 46.851562 62.09375 45.824219 C 62.09375 44.84375 61.722656 44.054688 61.042969 43.507812 C 60.382812 43.027344 59.59375 42.785156 58.628906 42.785156 M 63.605469 42.785156 L 62.816406 42.785156 L 62.816406 48.972656 L 63.605469 48.972656 Z M 70.84375 45.890625 C 70.84375 44.972656 70.539062 44.25 69.878906 43.640625 C 69.199219 42.960938 68.476562 42.675781 67.578125 42.675781 C 66.65625 42.675781 65.933594 42.960938 65.320312 43.640625 L 65.800781 44.121094 C 66.285156 43.640625 66.898438 43.398438 67.578125 43.398438 C 68.300781 43.398438 68.914062 43.640625 69.398438 44.121094 C 69.839844 44.628906 70.058594 45.21875 70.054688 45.890625 C 70.0625 46.578125 69.820312 47.160156 69.332031 47.640625 C 68.847656 48.128906 68.265625 48.367188 67.578125 48.363281 C 66.898438 48.363281 66.347656 48.121094 65.867188 47.640625 C 65.382812 47.160156 65.144531 46.546875 65.144531 45.890625 C 65.144531 45.214844 65.382812 44.601562 65.800781 44.121094 L 65.320312 43.640625 C 64.636719 44.25 64.332031 44.972656 64.332031 45.890625 C 64.332031 46.789062 64.636719 47.574219 65.320312 48.1875 C 65.933594 48.800781 66.65625 49.105469 67.578125 49.105469 C 68.476562 49.105469 69.265625 48.800781 69.878906 48.1875 C 70.539062 47.574219 70.84375 46.789062 70.84375 45.890625 M 78.761719 44.359375 L 79.308594 43.878906 C 78.628906 43.09375 77.839844 42.675781 76.808594 42.675781 C 75.910156 42.675781 75.164062 42.960938 74.507812 43.640625 C 73.894531 44.25 73.585938 44.972656 73.585938 45.890625 C 73.585938 46.789062 73.894531 47.53125 74.507812 48.121094 C 75.121094 48.800781 75.84375 49.105469 76.699219 49.105469 C 77.554688 49.105469 78.277344 48.800781 78.828125 48.25 C 79.375 47.707031 79.683594 46.984375 79.683594 46.132812 L 79.683594 45.890625 L 77.183594 45.890625 L 77.183594 46.546875 L 78.828125 46.546875 L 78.148438 47.902344 L 76.746094 48.449219 C 76.085938 48.449219 75.539062 48.1875 75.054688 47.640625 C 74.574219 47.09375 74.308594 46.546875 74.308594 45.890625 C 74.308594 45.210938 74.574219 44.601562 75.054688 44.121094 C 75.539062 43.574219 76.152344 43.332031 76.808594 43.332031 C 77.597656 43.332031 78.277344 43.707031 78.761719 44.359375 M 80.339844 42.785156 L 80.339844 48.972656 L 81.128906 48.972656 L 81.128906 46 L 84.113281 46 L 84.113281 48.972656 L 84.835938 48.972656 L 84.835938 42.785156 L 84.113281 42.785156 L 84.113281 45.277344 L 81.128906 45.277344 L 81.128906 42.785156 Z M 86.722656 48.972656 L 86.722656 42.785156 L 85.933594 42.785156 L 85.933594 48.972656 Z M 88.609375 42.785156 L 87.820312 42.785156 L 87.820312 48.972656 L 89.289062 48.972656 L 90.800781 48.625 C 91.242188 48.316406 91.480469 47.816406 91.480469 47.269531 L 91.109375 46.242188 C 90.878906 45.941406 90.582031 45.761719 90.210938 45.695312 L 90.210938 45.652344 C 90.628906 45.453125 90.867188 45.039062 90.867188 44.492188 C 90.867188 43.332031 90.144531 42.785156 88.609375 42.785156 L 88.609375 43.464844 L 88.804688 43.464844 C 89.703125 43.464844 90.144531 43.816406 90.144531 44.492188 C 90.144531 45.148438 89.703125 45.519531 88.804688 45.519531 L 88.609375 45.519531 L 88.609375 46.132812 L 89.113281 46.132812 C 90.144531 46.132812 90.691406 46.480469 90.691406 47.226562 C 90.691406 47.945312 90.210938 48.316406 89.222656 48.316406 L 88.609375 48.316406 L 88.609375 43.464844 M 92.335938 48.972656 L 95.011719 48.972656 L 95.011719 48.253906 L 93.0625 48.253906 L 93.0625 42.785156 L 92.335938 42.785156 Z M 96.21875 48.972656 L 96.21875 42.785156 L 95.429688 42.785156 L 95.429688 48.972656 Z M 44.160156 32.53125 L 44.160156 33.515625 L 48.679688 33.515625 C 48.238281 34.71875 47.515625 35.8125 46.527344 36.773438 C 45.628906 37.691406 44.707031 38.304688 43.675781 38.65625 L 44.292969 39.464844 C 45.496094 38.960938 46.660156 38.128906 47.757812 36.839844 L 50.433594 39.507812 L 51.222656 38.65625 L 48.304688 36.117188 C 49.09375 35.023438 49.707031 33.824219 50.015625 32.53125 Z M 54.269531 34.0625 L 57.316406 34.0625 C 57.121094 34.960938 56.769531 35.703125 56.265625 36.359375 L 54.269531 35.089844 L 53.589844 35.746094 L 55.609375 37.078125 C 54.511719 38 53.28125 38.609375 51.902344 38.851562 L 52.449219 39.703125 C 55.914062 38.917969 57.976562 36.730469 58.523438 33.210938 L 54.816406 33.210938 L 55.300781 32.292969 L 54.269531 32.050781 C 53.65625 33.625 52.691406 34.785156 51.351562 35.441406 L 52.011719 36.183594 Z M 66.003906 34.105469 L 65.015625 33.691406 C 64.46875 35.332031 63.808594 36.535156 62.910156 37.210938 C 62.121094 37.867188 60.828125 38.238281 59.203125 38.371094 L 59.445312 39.398438 C 61.332031 39.203125 62.714844 38.65625 63.765625 37.824219 C 64.601562 37.035156 65.34375 35.8125 66.003906 34.105469 M 66.375 33.011719 L 65.960938 31.746094 L 65.214844 31.875 L 65.695312 33.210938 Z M 59.074219 34.347656 L 58.699219 35.265625 L 61.136719 36.226562 L 61.507812 35.265625 Z M 59.796875 32.421875 L 59.378906 33.320312 C 60.21875 33.554688 61.027344 33.863281 61.816406 34.238281 L 62.230469 33.320312 Z M 64.007812 31.984375 L 64.425781 33.386719 L 65.148438 33.210938 L 64.730469 31.808594 Z M 75.675781 32.421875 L 75.257812 33.320312 C 76.046875 33.515625 76.835938 33.824219 77.625 34.238281 L 78.109375 33.320312 Z M 74.953125 34.347656 L 74.535156 35.265625 L 76.96875 36.226562 L 77.386719 35.265625 C 76.902344 34.960938 76.113281 34.652344 74.953125 34.347656 M 81.835938 34.105469 L 80.917969 33.691406 C 80.367188 35.332031 79.644531 36.535156 78.789062 37.210938 C 78 37.867188 76.726562 38.238281 75.082031 38.371094 L 75.324219 39.398438 C 77.210938 39.203125 78.613281 38.65625 79.578125 37.824219 C 80.5 37.035156 81.222656 35.8125 81.835938 34.105469 M 81.53125 33.210938 L 82.253906 33.011719 L 81.835938 31.746094 L 81.09375 31.875 Z M 80.300781 33.386719 L 81.046875 33.210938 L 80.609375 31.808594 L 79.886719 31.984375 Z M 90.414062 32.773438 L 90.039062 31.570312 L 89.316406 31.746094 L 89.6875 32.96875 Z M 88.898438 32.902344 L 89.183594 32.839844 L 88.832031 31.636719 L 88.042969 31.808594 L 88.394531 32.902344 L 82.867188 32.902344 L 82.867188 33.867188 L 88.351562 33.867188 C 88.152344 35.503906 87.496094 36.773438 86.332031 37.582031 L 83.59375 38.542969 L 84.140625 39.507812 C 87.496094 38.785156 89.25 36.597656 89.425781 32.902344 L 88.898438 32.902344 M 96.683594 32.292969 L 95.632812 32.292969 L 95.632812 35.988281 C 95.632812 37.035156 95.28125 37.757812 94.558594 38.171875 L 91.75 38.71875 L 92.058594 39.703125 L 94.117188 39.332031 L 95.390625 38.71875 C 96.246094 38.0625 96.683594 37.035156 96.683594 35.570312 L 96.683594 32.292969 M 92.300781 32.421875 L 91.3125 32.421875 L 91.3125 37.144531 L 92.300781 37.144531 Z M 66.75 33.515625 L 66.75 34.476562 L 70.457031 34.476562 C 69.773438 35.703125 68.570312 36.90625 66.792969 38.128906 L 67.339844 38.960938 C 68.570312 38.171875 69.535156 37.277344 70.28125 36.359375 L 71.046875 35.265625 L 71.046875 39.574219 L 72.035156 39.574219 L 72.035156 34.476562 L 73.984375 34.476562 L 73.984375 33.515625 L 71.96875 33.515625 L 71.96875 32.117188 L 71.046875 32.117188 L 71.046875 33.515625 Z M 105.648438 41.148438 L 105.648438 41.039062 L 34.460938 41.039062 L 34.460938 41.148438 Z M 35.25 18.757812 L 35.25 18.648438 L 34.460938 18.648438 L 34.285156 18.757812 L 34.285156 18.824219 L 34.703125 18.757812 L 35.140625 18.824219 Z M 25.402344 26.714844 L 25.335938 26.652344 L 25.335938 26.476562 L 25.273438 26.277344 L 25.273438 26.167969 L 25.160156 25.929688 L 25.097656 25.730469 L 25.03125 25.6875 L 25.03125 25.558594 L 24.964844 25.492188 L 24.855469 25.25 L 24.789062 25.207031 L 24.679688 25.011719 L 24.546875 24.902344 L 23.582031 24.59375 L 22.769531 24.660156 L 22.355469 24.792969 L 22.046875 25.011719 L 21.980469 25.140625 L 21.9375 25.207031 L 21.871094 25.339844 L 21.804688 25.382812 L 21.804688 25.449219 L 21.742188 25.492188 L 21.742188 25.558594 L 21.695312 25.625 L 21.695312 25.796875 L 21.632812 25.929688 L 21.632812 26.105469 L 21.566406 26.234375 L 21.566406 26.34375 L 21.5 26.34375 L 21.5 26.652344 L 21.433594 26.824219 L 21.324219 26.957031 L 21.324219 27.023438 L 21.390625 27.023438 L 21.5 27.199219 L 21.5 27.742188 L 21.566406 27.742188 L 21.566406 27.808594 L 21.632812 27.917969 L 21.632812 27.984375 L 21.742188 28.160156 L 21.871094 28.050781 L 21.871094 27.984375 L 21.804688 27.875 L 21.804688 27.632812 L 21.742188 27.570312 L 21.742188 26.714844 L 21.804688 26.652344 L 21.804688 26.539062 L 21.871094 26.539062 L 21.871094 26.039062 L 21.9375 25.996094 L 21.9375 25.796875 L 21.980469 25.730469 L 21.980469 25.558594 L 22.046875 25.558594 L 22.179688 25.339844 L 22.289062 25.207031 L 23.277344 24.835938 L 23.867188 24.902344 L 24.242188 25.078125 L 24.480469 25.339844 L 24.546875 25.339844 L 24.546875 25.382812 L 24.722656 25.730469 L 24.789062 25.796875 L 24.789062 25.886719 L 24.855469 25.996094 L 24.921875 26.039062 L 24.964844 26.234375 L 24.964844 26.277344 L 25.03125 26.34375 L 25.03125 26.539062 L 25.097656 26.585938 L 25.097656 26.824219 L 25.160156 27.089844 L 25.160156 27.371094 L 25.097656 27.503906 L 24.964844 27.679688 L 24.855469 27.742188 L 24.546875 27.984375 L 24.242188 28.160156 L 23.515625 28.464844 L 23.144531 28.53125 L 22.484375 28.421875 L 22.289062 28.355469 L 22.246094 28.355469 L 22.113281 28.226562 L 21.9375 28.117188 L 21.871094 28.050781 L 21.742188 28.160156 L 22.289062 28.597656 L 22.660156 28.707031 L 23.144531 28.773438 L 24.066406 28.53125 L 24.722656 28.160156 L 25.160156 27.808594 L 25.273438 27.632812 L 25.335938 27.570312 L 25.710938 27.570312 L 25.753906 27.4375 L 25.578125 27.328125 L 25.46875 27.199219 L 25.402344 27.089844 Z M 18.101562 25.996094 L 18.101562 26.039062 L 18.210938 26.105469 L 18.277344 25.996094 L 18.277344 25.929688 L 18.339844 25.796875 L 18.339844 25.6875 L 18.40625 25.558594 L 18.40625 25.449219 L 18.472656 25.25 L 18.472656 25.207031 L 18.40625 25.140625 L 18.339844 25.207031 L 18.339844 25.25 L 18.277344 25.25 L 18.277344 25.449219 L 18.210938 25.449219 L 18.210938 25.6875 L 18.164062 25.6875 L 18.164062 25.730469 Z M 18.714844 25.730469 L 18.515625 25.730469 L 18.472656 25.886719 L 18.515625 25.996094 L 18.648438 25.996094 L 18.714844 25.886719 Z M 19 25.929688 L 18.824219 25.929688 L 18.824219 25.996094 L 18.957031 26.105469 L 19 26.039062 Z M 19.371094 26.039062 L 19.261719 26.039062 L 19.195312 26.167969 L 19.261719 26.234375 L 19.371094 26.277344 L 19.4375 26.234375 L 19.4375 26.105469 Z M 19.371094 26.039062 " fill-opacity="1" fill-rule="nonzero"/></g><path fill="#000000" d="M 22.046875 26.585938 L 22.046875 27.199219 L 22.113281 27.261719 L 22.289062 27.503906 L 22.59375 27.503906 L 22.726562 27.4375 L 22.835938 27.261719 L 22.835938 26.476562 L 22.660156 26.652344 L 22.726562 26.714844 L 22.660156 26.824219 L 22.59375 26.78125 L 22.59375 26.652344 L 22.660156 26.652344 L 22.835938 26.476562 L 22.769531 26.277344 L 22.726562 26.167969 L 22.59375 26.039062 L 22.355469 26.105469 L 22.113281 26.34375 L 22.113281 26.476562 Z M 15.972656 28.289062 L 15.972656 28.226562 L 15.90625 28.117188 L 15.730469 27.984375 L 15.359375 28.050781 L 15.292969 28.160156 L 15.226562 28.226562 L 15.226562 28.355469 L 15.183594 28.421875 L 15.425781 28.53125 L 15.90625 28.421875 Z M 22.59375 30.652344 L 22.53125 30.847656 L 22.53125 30.890625 L 22.726562 31.089844 L 22.96875 30.890625 L 22.902344 30.847656 L 24.242188 30.890625 L 24.242188 30.957031 L 23.277344 30.957031 L 22.96875 30.890625 L 22.726562 31.089844 L 23.515625 31.199219 L 28.976562 31.570312 L 29.351562 31.679688 L 29.722656 31.679688 L 30.929688 31.921875 L 31.238281 31.921875 L 31.300781 31.875 L 31.171875 31.679688 L 30.273438 31.503906 L 29.417969 31.4375 L 28.867188 31.328125 Z M 21.390625 31.875 L 20.601562 31.875 L 20.644531 31.921875 L 20.949219 32.117188 L 22.246094 32.226562 L 23.515625 32.53125 L 23.515625 32.421875 L 23.320312 32.226562 L 22.726562 32.183594 L 22.179688 31.984375 Z M 21.390625 31.875 " fill-opacity="1" fill-rule="nonzero"/><g clip-path="url(#7a2586c11f)"><path fill="#000000" d="M 31.300781 34.171875 L 31.300781 34.0625 L 31.171875 33.929688 L 30.863281 33.757812 L 30.820312 33.996094 L 30.820312 34.0625 L 30.207031 34.0625 L 29.21875 33.757812 L 28.867188 33.691406 L 25.753906 32.773438 L 25.46875 32.664062 L 25.953125 32.730469 L 26.742188 32.96875 L 27.027344 32.96875 L 30.511719 33.867188 L 30.820312 33.996094 L 30.863281 33.757812 L 28.933594 33.277344 L 28.5625 33.144531 L 22.53125 31.746094 L 22.355469 31.679688 L 21.808594 31.570312 L 21.566406 31.570312 L 21.148438 31.4375 L 20.535156 31.503906 L 20.46875 31.570312 L 20.535156 31.679688 L 20.710938 31.570312 L 21.015625 31.679688 L 21.808594 31.808594 L 22.246094 31.984375 L 23.625 32.183594 L 23.691406 32.226562 L 24.175781 32.359375 L 24 32.421875 L 23.867188 32.597656 L 23.933594 32.597656 L 29.351562 34.0625 L 30.863281 34.304688 Z M 15.488281 33.078125 L 15.488281 32.96875 L 15.359375 32.839844 L 15.050781 32.902344 L 14.984375 32.96875 L 14.984375 33.011719 Z M 22.246094 33.824219 L 22.246094 34.0625 L 22.484375 34.238281 L 22.660156 34.0625 L 22.484375 33.929688 L 22.53125 33.867188 L 23.277344 34.105469 L 23.386719 34.105469 L 26.257812 35.332031 L 26.433594 35.398438 L 27.289062 35.878906 L 27.289062 35.941406 L 27.222656 35.941406 L 23.386719 34.347656 L 23.144531 34.304688 L 22.660156 34.0625 L 22.484375 34.238281 L 25.820312 35.503906 L 25.886719 35.570312 L 26.257812 35.746094 L 26.566406 35.8125 L 27.707031 36.292969 L 27.902344 36.359375 L 28.253906 36.425781 L 28.320312 36.359375 L 28.078125 36.183594 L 27.835938 35.941406 L 26.566406 35.15625 L 26.191406 35.023438 L 25.953125 34.894531 L 22.835938 33.757812 L 22.355469 33.691406 Z M 19.984375 37.757812 L 19.921875 37.691406 L 19.746094 37.625 L 19.613281 37.625 L 19.679688 37.867188 L 20.050781 38.0625 L 20.226562 38.171875 L 20.402344 38.238281 L 20.46875 38.371094 L 20.46875 38.414062 L 20.886719 38.609375 L 21.148438 38.785156 L 21.191406 38.785156 L 21.324219 38.960938 L 21.433594 39.199219 L 21.433594 39.289062 L 21.566406 39.332031 L 21.742188 39.507812 L 21.9375 39.636719 L 22.046875 39.878906 L 22.113281 39.945312 L 22.179688 39.945312 L 22.355469 40.183594 L 22.902344 40.730469 L 22.902344 40.796875 L 22.96875 40.839844 L 22.96875 40.929688 L 23.078125 41.039062 L 23.078125 41.082031 L 23.210938 41.210938 L 23.210938 41.277344 L 23.277344 41.34375 L 23.320312 41.519531 L 23.386719 41.585938 L 23.453125 41.890625 L 23.453125 42 L 23.519531 42.242188 L 23.519531 42.371094 L 23.582031 42.480469 L 23.695312 42.613281 L 23.757812 42.722656 L 23.757812 42.789062 L 23.933594 42.960938 L 23.933594 43.027344 L 24 43.09375 L 24 43.269531 L 24.066406 43.398438 L 24.132812 43.574219 L 24.132812 43.816406 L 24.679688 44.425781 L 24.722656 44.734375 L 24.722656 45.824219 L 24.789062 45.933594 L 24.789062 46.066406 L 24.855469 46.132812 L 24.855469 46.484375 L 24.789062 46.546875 L 24.789062 46.679688 L 25.03125 46.855469 L 25.03125 46.984375 L 24.964844 47.160156 L 24.964844 47.402344 L 25.03125 47.464844 L 25.164062 47.226562 L 25.164062 47.160156 L 25.207031 47.09375 L 25.207031 46.921875 L 25.097656 46.789062 L 25.164062 46.4375 L 25.097656 46.4375 L 25.097656 46.066406 L 25.03125 45.890625 L 25.03125 45.453125 L 24.964844 45.039062 L 24.964844 44.972656 L 25.03125 44.84375 L 25.03125 44.425781 L 24.417969 43.816406 C 24.375 43.769531 24.308594 43.707031 24.375 43.574219 L 24.308594 43.269531 L 24.308594 43.226562 L 24.242188 43.09375 L 24.242188 42.960938 L 24.175781 42.917969 L 24.132812 42.785156 L 23.933594 42.613281 L 23.933594 42.546875 L 23.867188 42.480469 L 23.824219 42.371094 L 23.757812 42.128906 L 23.757812 42.066406 L 23.691406 41.933594 L 23.691406 41.628906 L 23.625 41.519531 L 23.625 41.472656 L 23.582031 41.472656 L 23.582031 41.34375 L 23.515625 41.277344 L 23.386719 41.082031 L 23.320312 40.972656 L 23.210938 40.839844 L 23.210938 40.796875 L 23.144531 40.730469 L 23.144531 40.664062 L 22.96875 40.535156 L 22.96875 40.492188 L 22.484375 40.007812 L 22.421875 39.878906 L 22.113281 39.574219 L 21.980469 39.398438 L 21.980469 39.332031 L 21.9375 39.289062 L 21.871094 39.289062 L 21.742188 39.15625 L 21.628906 38.960938 L 21.628906 38.851562 L 21.5 38.71875 L 21.433594 38.609375 L 21.324219 38.542969 L 20.773438 38.371094 L 20.597656 38.238281 L 20.644531 38.238281 L 20.644531 38.128906 L 20.46875 38 Z M 14.503906 42.613281 C 14.328125 42.546875 14.085938 42.613281 13.78125 42.851562 L 13.648438 42.960938 L 13.296875 43.09375 L 12.988281 43.398438 L 12.375 43.816406 L 12.308594 43.945312 L 12.003906 44.253906 L 11.960938 44.363281 L 11.894531 44.425781 L 11.894531 44.558594 L 12.003906 44.667969 L 12.988281 44.601562 L 13.339844 44.558594 L 13.539062 44.558594 L 13.714844 44.667969 L 13.886719 44.84375 L 14.128906 45.039062 L 14.261719 45.214844 L 14.4375 45.390625 L 14.503906 45.519531 L 14.632812 45.652344 L 14.679688 45.761719 L 14.679688 45.828125 L 14.808594 45.9375 L 14.875 46.132812 L 14.941406 46.199219 L 15.292969 46.375 L 15.425781 46.242188 L 15.488281 46.242188 L 15.488281 45.34375 L 15.535156 45.34375 L 15.535156 45.105469 L 15.601562 45.039062 L 15.601562 44.90625 L 15.535156 44.796875 L 15.535156 44.558594 L 15.488281 44.363281 L 15.488281 44.1875 L 15.425781 44.1875 L 15.425781 44.011719 L 15.359375 43.945312 L 15.226562 44.011719 L 15.292969 44.363281 L 15.292969 44.734375 L 15.359375 44.910156 L 15.359375 45.214844 L 15.292969 45.214844 L 15.292969 45.890625 L 15.226562 46.003906 L 15.117188 46.066406 L 14.941406 45.894531 L 14.941406 45.828125 L 14.875 45.761719 L 14.875 45.652344 L 14.746094 45.519531 L 14.570312 45.28125 L 14.503906 45.214844 L 14.4375 45.105469 L 14.4375 45.039062 L 14.328125 44.90625 L 14.195312 44.84375 L 14.128906 44.796875 L 14.085938 44.667969 L 13.777344 44.492188 L 13.230469 44.253906 L 12.859375 44.363281 L 12.441406 44.363281 L 12.441406 44.1875 L 13.230469 43.640625 L 13.40625 43.398438 L 14.394531 42.851562 L 14.570312 42.917969 L 14.636719 42.960938 L 14.746094 43.027344 L 14.808594 43.160156 L 14.875 43.226562 L 14.941406 43.332031 L 14.984375 43.398438 L 14.984375 43.507812 L 15.050781 43.507812 L 15.050781 43.640625 L 15.117188 43.707031 L 15.117188 43.816406 L 15.183594 43.816406 L 15.183594 43.945312 L 15.226562 44.011719 L 15.359375 43.945312 L 15.359375 43.773438 L 15.292969 43.640625 L 15.226562 43.464844 L 15.226562 43.402344 L 15.183594 43.226562 L 15.183594 43.15625 L 15.117188 43.09375 L 15.117188 43.027344 L 15.050781 42.960938 L 14.746094 42.722656 Z M 21.015625 47.707031 L 21.015625 47.640625 L 20.949219 47.574219 L 20.949219 47.53125 L 20.402344 46.984375 L 20.160156 46.917969 L 19.855469 46.984375 L 19.308594 47.269531 L 18.890625 47.707031 L 18.890625 47.816406 L 18.582031 48.121094 L 18.339844 48.316406 L 18.277344 48.449219 L 18.210938 48.492188 L 18.101562 48.667969 L 18.101562 48.800781 L 18.164062 48.867188 L 18.824219 48.976562 L 19.546875 48.976562 L 19.546875 48.800781 L 19.128906 48.734375 L 18.515625 48.734375 L 18.472656 48.625 L 18.472656 48.496094 L 18.515625 48.449219 L 18.714844 48.320312 L 19.066406 48.011719 L 19.132812 47.945312 L 19.371094 47.640625 L 19.503906 47.574219 C 19.679688 47.402344 19.855469 47.269531 20.050781 47.226562 L 20.359375 47.226562 L 20.644531 47.53125 L 20.777344 47.707031 L 20.777344 47.816406 L 20.84375 47.816406 L 20.84375 47.949219 L 20.886719 48.078125 L 20.886719 48.1875 L 20.953125 48.800781 L 20.953125 48.910156 L 21.019531 48.910156 L 21.019531 49.28125 L 21.082031 49.457031 L 21.082031 49.652344 L 21.019531 49.695312 L 20.777344 49.695312 L 20.402344 49.347656 L 20.402344 49.28125 L 20.359375 49.28125 L 20.164062 49.105469 L 20.097656 48.976562 L 20.054688 48.976562 L 19.546875 48.800781 L 19.546875 49.039062 L 19.613281 49.039062 L 19.921875 49.152344 L 20.097656 49.347656 L 20.226562 49.523438 L 20.292969 49.523438 L 20.402344 49.695312 L 20.535156 49.828125 L 20.953125 49.957031 L 21.257812 49.894531 L 21.324219 49.761719 L 21.324219 49.585938 L 21.257812 49.28125 L 21.257812 48.976562 L 21.191406 48.667969 L 21.191406 48.363281 L 21.148438 48.078125 L 21.148438 47.949219 L 21.082031 47.902344 L 21.082031 47.773438 Z M 42.925781 23.566406 L 43.585938 23.984375 L 43.714844 24.15625 L 43.957031 24.355469 L 43.714844 24.59375 L 43.714844 24.703125 L 44.089844 24.835938 L 44.199219 24.945312 L 44.199219 25.011719 L 44.328125 25.140625 L 44.375 25.25 L 44.503906 25.339844 L 44.570312 25.449219 L 44.679688 25.625 L 44.746094 25.6875 L 44.878906 25.886719 L 44.878906 26.105469 L 44.8125 26.105469 L 44.746094 26.234375 L 44.746094 26.277344 L 44.878906 26.433594 L 44.988281 26.585938 L 44.988281 26.652344 L 45.292969 26.957031 L 45.425781 27.132812 L 45.425781 27.199219 L 45.535156 27.4375 L 45.535156 27.679688 L 45.601562 27.742188 L 45.667969 27.875 L 45.667969 27.917969 L 45.710938 27.917969 L 45.710938 28.226562 L 45.84375 28.464844 L 45.84375 28.53125 L 45.910156 28.660156 L 45.976562 28.707031 L 45.976562 28.835938 L 46.019531 28.96875 L 46.148438 29.144531 L 46.148438 29.207031 L 46.214844 29.316406 L 46.257812 29.382812 L 46.257812 29.558594 L 46.324219 29.558594 L 46.324219 29.6875 L 46.390625 29.863281 L 46.390625 29.996094 L 46.457031 29.996094 L 46.457031 30.105469 L 46.523438 30.238281 L 46.566406 30.300781 L 46.566406 30.347656 L 46.632812 30.410156 L 46.699219 30.585938 L 46.765625 30.71875 L 46.808594 30.78125 L 46.875 30.890625 L 46.875 30.957031 L 46.941406 31.132812 L 46.941406 31.199219 L 47.003906 31.4375 L 47.070312 31.570312 L 47.070312 31.679688 L 47.113281 31.875 L 47.113281 31.984375 L 47.179688 31.984375 L 47.179688 32.183594 L 47.3125 32.421875 L 47.3125 32.730469 L 47.355469 32.730469 L 47.355469 32.839844 L 47.597656 32.839844 L 47.597656 32.730469 L 47.554688 32.730469 L 47.554688 32.53125 L 47.488281 32.53125 L 47.488281 32.421875 L 47.421875 32.359375 L 47.421875 32.050781 L 47.355469 31.921875 L 47.3125 31.875 L 47.3125 31.679688 L 47.246094 31.4375 L 47.246094 31.328125 L 47.179688 31.199219 L 47.179688 31.132812 L 47.113281 31.089844 L 47.113281 30.957031 L 47.070312 30.890625 L 47.003906 30.71875 L 47.003906 30.652344 L 46.941406 30.652344 L 46.941406 30.542969 L 46.875 30.476562 L 46.875 30.347656 L 46.808594 30.300781 L 46.699219 29.929688 L 46.699219 29.863281 L 46.632812 29.800781 L 46.566406 29.6875 L 46.566406 29.625 L 46.390625 29.253906 L 46.390625 29.144531 L 46.324219 29.078125 L 46.257812 28.902344 L 46.257812 28.835938 L 46.214844 28.773438 L 46.148438 28.660156 L 46.148438 28.53125 L 46.082031 28.464844 L 45.976562 28.226562 L 45.976562 28.117188 L 45.910156 28.117188 L 45.910156 27.984375 L 45.84375 27.808594 L 45.84375 27.679688 L 45.777344 27.632812 L 45.777344 27.570312 L 45.710938 27.4375 L 45.710938 27.371094 L 45.667969 27.261719 L 45.667969 27.132812 L 45.601562 27.089844 L 45.535156 26.957031 L 45.425781 26.78125 L 45.359375 26.652344 L 45.183594 26.476562 L 45.230469 26.34375 L 45.230469 26.167969 L 45.183594 25.996094 L 45.117188 25.886719 L 45.054688 25.886719 L 45.054688 25.730469 L 44.988281 25.730469 L 44.921875 25.625 L 44.746094 25.382812 L 44.679688 25.25 L 44.4375 24.902344 L 44.375 24.835938 L 44.375 24.792969 L 44.265625 24.59375 L 44.199219 24.53125 L 44.199219 24.398438 L 44.132812 24.355469 L 44.023438 24.15625 L 43.957031 24.050781 L 43.648438 23.742188 L 43.472656 23.503906 L 43.410156 23.503906 L 43.167969 23.304688 L 42.859375 23.4375 Z M 22.59375 15.542969 L 22.484375 15.433594 L 22.484375 15.367188 L 22.421875 15.304688 L 22.289062 15.238281 L 22.179688 15.367188 L 22.289062 15.5 L 22.421875 15.847656 L 22.421875 16.089844 L 22.355469 16.089844 L 22.355469 16.15625 L 22.289062 16.222656 L 22.179688 16.394531 L 21.871094 16.285156 L 21.808594 16.15625 L 21.695312 16.046875 L 21.695312 15.980469 L 21.632812 15.847656 L 21.632812 15.785156 L 21.695312 15.785156 L 21.695312 15.609375 L 21.742188 15.542969 L 21.808594 15.433594 L 22.179688 15.367188 L 22.289062 15.238281 L 22.046875 15.191406 L 21.808594 15.191406 L 21.632812 15.304688 L 21.566406 15.367188 L 21.433594 15.542969 L 21.433594 16.046875 L 21.5 16.222656 L 21.566406 16.285156 L 21.632812 16.394531 L 21.808594 16.460938 L 22.289062 16.527344 L 22.355469 16.394531 L 22.53125 16.222656 L 22.59375 16.046875 Z M 22.59375 15.542969 " fill-opacity="1" fill-rule="nonzero"/></g><g clip-path="url(#20f4278df7)"><path fill="#000000" d="M 39.8125 5.792969 L 39.8125 6.207031 L 39.878906 6.382812 L 39.945312 6.449219 L 40.011719 6.578125 L 40.011719 6.820312 L 40.054688 6.996094 L 40.054688 7.167969 L 40.121094 7.300781 L 40.121094 7.847656 L 40.183594 7.847656 L 40.183594 8.21875 L 40.25 8.261719 L 40.25 8.394531 L 40.316406 8.460938 L 40.316406 8.765625 L 40.359375 8.765625 L 40.359375 9.597656 L 40.425781 9.664062 L 40.425781 9.792969 L 40.492188 9.96875 L 40.492188 10.515625 L 40.558594 10.644531 L 40.558594 10.820312 L 40.601562 10.886719 L 40.558594 10.929688 L 40.601562 11.0625 L 40.601562 11.542969 L 40.667969 11.542969 L 40.667969 12.332031 L 40.734375 12.8125 L 40.734375 13.796875 L 40.667969 13.90625 L 40.667969 15.128906 L 40.601562 15.195312 L 40.667969 15.304688 L 40.667969 15.542969 L 40.601562 15.542969 L 40.601562 15.980469 L 40.558594 16.089844 L 40.558594 16.222656 L 40.492188 16.332031 L 40.492188 16.527344 L 39.703125 16.835938 C 39.507812 16.878906 39.332031 16.945312 39.21875 17.007812 L 38.605469 17.121094 L 38.058594 17.621094 L 38.058594 18.101562 L 37.992188 18.167969 L 37.992188 18.277344 L 37.925781 18.714844 L 37.816406 18.890625 L 37.75 19.066406 L 37.683594 19.128906 L 37.621094 19.261719 L 37.621094 19.371094 L 37.574219 19.4375 L 37.574219 19.613281 L 37.683594 19.679688 L 37.882812 19.546875 L 37.925781 19.503906 L 37.925781 19.371094 L 38.234375 19.4375 L 38.847656 19.742188 C 39.394531 20.050781 39.769531 20.222656 39.878906 20.222656 L 40.011719 20.289062 L 40.558594 20.464844 L 40.910156 20.640625 L 41.28125 20.902344 L 41.28125 21.011719 L 40.972656 21.011719 L 40.863281 21.144531 L 41.761719 21.625 L 42.488281 22.171875 L 42.488281 22.234375 L 42.445312 22.28125 L 41.9375 22.171875 L 41.761719 22.28125 L 42.003906 22.410156 C 42.3125 22.476562 42.617188 22.609375 42.792969 22.78125 L 43.410156 23.375 L 43.648438 23.570312 L 43.824219 23.808594 L 43.890625 23.808594 L 43.824219 23.613281 L 43.277344 23.066406 L 43.234375 22.78125 L 43.101562 22.71875 L 42.992188 22.476562 L 42.683594 22.039062 L 41.894531 21.382812 L 41.828125 21.316406 L 41.9375 21.183594 L 41.9375 21.074219 L 41.585938 20.835938 L 41.390625 20.636719 L 40.972656 20.355469 L 39.261719 19.742188 L 38.671875 19.371094 L 38.671875 19.261719 L 39.089844 19.304688 L 39.394531 19.304688 L 39.394531 19.195312 L 39.328125 19.128906 L 38.605469 18.996094 L 38.296875 18.757812 L 38.363281 18.714844 L 38.914062 18.824219 L 39.085938 18.824219 L 39.636719 18.953125 L 39.8125 18.953125 L 39.941406 18.886719 L 39.875 18.757812 L 38.714844 18.515625 L 38.363281 18.40625 L 38.429688 18.339844 L 38.539062 18.277344 L 39.21875 18.339844 L 40.25 18.648438 L 40.667969 18.824219 L 40.796875 18.757812 L 40.796875 18.648438 L 40.734375 18.582031 L 40.359375 18.339844 L 39.8125 18.210938 L 38.429688 18.035156 L 38.363281 17.96875 L 38.429688 17.925781 L 38.714844 17.925781 L 39.261719 17.859375 L 40.183594 17.859375 L 40.183594 17.792969 L 39.636719 17.664062 L 38.539062 17.664062 L 38.472656 17.621094 L 38.847656 17.421875 L 39.503906 17.183594 L 40.117188 17.074219 L 40.558594 16.832031 L 40.558594 16.765625 L 40.796875 16.394531 L 40.796875 16.15625 L 40.863281 16.089844 L 40.863281 14.339844 L 40.910156 14.207031 L 40.863281 14.101562 L 40.910156 13.792969 L 40.910156 12.023438 L 40.863281 12.023438 L 40.863281 11.367188 L 40.796875 10.886719 L 40.796875 10.578125 L 40.734375 10.273438 L 40.734375 9.96875 L 40.667969 9.96875 L 40.667969 9.726562 L 40.601562 9.59375 L 40.601562 9.421875 L 40.558594 9.246094 L 40.558594 8.261719 L 40.492188 8.21875 L 40.492188 7.847656 L 40.425781 7.714844 L 40.425781 7.542969 L 40.359375 7.476562 L 40.359375 7.058594 L 40.316406 6.992188 L 40.316406 6.753906 L 40.25 6.6875 L 40.25 6.621094 L 40.183594 6.511719 L 40.183594 6.449219 L 39.878906 5.59375 L 39.703125 5.550781 L 39.261719 5.660156 L 39.152344 5.792969 L 39.085938 5.902344 L 39.023438 5.96875 L 38.914062 6.140625 L 38.671875 6.6875 L 38.539062 6.820312 L 38.429688 7.058594 L 38.363281 7.125 L 37.992188 7.605469 L 37.925781 7.714844 L 37.75 7.914062 L 37.75 8.023438 L 37.617188 8.152344 L 37.203125 8.941406 L 37.136719 9.113281 L 37.070312 9.179688 L 37.027344 9.3125 L 36.960938 9.488281 L 36.828125 9.597656 L 36.785156 9.726562 L 36.71875 9.792969 L 36.585938 10.035156 L 36.585938 10.097656 L 36.542969 10.144531 L 36.410156 10.515625 L 36.28125 10.582031 L 36.28125 10.644531 L 36.167969 10.886719 L 36.105469 10.929688 L 36.039062 11.0625 L 36.039062 11.128906 L 35.992188 11.300781 L 35.992188 11.367188 L 35.929688 11.433594 L 35.929688 11.542969 L 35.863281 11.609375 L 35.863281 11.785156 L 35.796875 11.914062 L 35.796875 12.089844 L 35.554688 12.570312 L 35.554688 12.636719 L 35.488281 12.703125 L 35.246094 13.074219 L 35.183594 13.25 L 35.136719 13.316406 L 35.074219 13.554688 L 34.898438 13.796875 L 34.832031 14.035156 L 34.765625 14.101562 L 34.703125 14.210938 L 34.589844 14.40625 L 34.527344 14.449219 L 34.527344 14.515625 L 34.460938 14.648438 L 34.460938 14.757812 L 34.527344 15.195312 L 34.941406 15.742188 L 35.140625 15.914062 L 35.140625 15.980469 L 35.183594 15.980469 L 35.25 16.15625 L 35.445312 16.460938 L 35.445312 16.765625 L 35.25 16.703125 L 35.007812 16.460938 L 34.042969 15.914062 L 33.738281 16.222656 L 34.832031 17.007812 L 35.140625 17.378906 L 35.25 17.488281 L 35.382812 17.554688 L 35.449219 17.425781 L 35.074219 17.074219 L 34.59375 16.703125 L 34.285156 16.394531 L 34.285156 16.332031 L 34.21875 16.289062 L 34.527344 16.460938 L 34.660156 16.59375 L 34.898438 16.769531 L 34.941406 16.835938 L 35.25 17.007812 L 35.382812 17.117188 L 35.449219 17.25 L 35.449219 17.425781 L 35.382812 17.554688 L 35.449219 17.621094 L 35.449219 17.796875 L 35.382812 17.796875 L 35.183594 17.730469 L 34.109375 16.941406 L 33.804688 17.007812 L 33.976562 17.183594 L 34.59375 17.554688 L 34.660156 17.664062 L 34.527344 17.621094 L 32.949219 17.378906 L 32.574219 17.25 L 32.222656 17.183594 L 32.15625 17.117188 L 31.128906 17.117188 L 30.863281 17.007812 L 30.863281 16.832031 L 31.0625 16.636719 L 31.675781 16.460938 L 31.960938 16.394531 L 32.027344 16.289062 L 31.851562 16.222656 L 31.675781 16.222656 L 31.480469 16.289062 L 31.480469 16.332031 L 31.367188 16.394531 L 30.996094 16.460938 L 30.996094 16.394531 L 31.0625 16.394531 L 31.171875 16.289062 L 31.480469 16.289062 L 31.675781 16.222656 L 32.160156 15.980469 L 32.160156 15.914062 L 31.960938 15.914062 L 31.675781 16.046875 L 31.0625 16.089844 L 30.863281 15.980469 L 30.753906 16.222656 L 30.6875 16.222656 L 30.753906 16.332031 L 30.753906 16.59375 L 30.6875 16.703125 L 30.621094 17.007812 L 30.382812 17.117188 L 29.21875 17.25 L 29.175781 17.007812 L 29.175781 16.089844 L 29.21875 16.046875 L 29.21875 15.738281 L 29.285156 15.609375 L 29.21875 15.542969 L 29.21875 15.367188 L 29.175781 15.304688 L 29.109375 15.191406 L 29.175781 15.0625 L 28.738281 14.820312 L 28.496094 14.648438 L 28.453125 14.582031 L 28.453125 14.515625 L 28.386719 14.40625 L 28.386719 13.96875 L 28.453125 13.792969 L 28.453125 13.664062 L 28.496094 13.617188 L 28.628906 13.355469 L 28.628906 13.3125 L 28.671875 13.179688 L 28.671875 13.117188 L 28.738281 13.070312 L 28.804688 12.941406 L 28.804688 12.765625 L 28.867188 12.699219 L 28.867188 12.527344 L 28.976562 12.089844 L 28.976562 11.914062 L 29.042969 11.738281 L 29.109375 11.609375 L 29.109375 11.542969 L 29.21875 11.367188 L 29.21875 11.234375 L 29.285156 11.191406 L 29.285156 11.058594 L 29.351562 10.996094 L 29.351562 10.929688 L 29.417969 10.820312 L 29.484375 10.753906 L 29.484375 10.644531 L 29.527344 10.578125 L 29.527344 10.445312 L 29.59375 10.382812 L 29.59375 10.273438 L 29.660156 10.207031 L 29.898438 9.726562 L 30.03125 9.351562 L 30.074219 9.308594 L 30.140625 9.179688 L 30.207031 9.113281 L 30.382812 8.761719 L 30.625 8.5 L 30.929688 8.085938 L 30.996094 7.976562 L 31.128906 7.777344 L 31.613281 7.296875 L 31.675781 7.363281 L 31.722656 7.472656 L 31.722656 7.605469 L 31.785156 7.671875 L 31.785156 7.910156 L 31.851562 8.085938 L 31.851562 8.152344 L 31.917969 8.324219 L 31.917969 8.871094 L 31.960938 9.003906 L 31.960938 9.355469 L 32.027344 9.484375 L 32.027344 10.339844 L 32.09375 10.449219 L 32.09375 10.511719 L 32.160156 10.578125 L 32.160156 10.886719 L 32.226562 10.996094 L 32.226562 11.78125 L 32.269531 11.914062 L 32.269531 12.636719 L 32.226562 12.699219 L 32.226562 13.355469 L 32.269531 13.421875 L 32.269531 13.726562 L 32.335938 13.859375 L 32.335938 13.96875 L 32.402344 14.035156 L 32.402344 14.515625 L 32.226562 14.886719 L 31.128906 15.433594 L 30.933594 15.609375 L 30.867188 15.738281 L 30.933594 15.785156 L 30.933594 15.914062 L 31.066406 15.914062 L 31.613281 15.785156 L 31.855469 15.785156 L 32.160156 15.738281 L 31.964844 15.609375 L 31.546875 15.609375 L 31.546875 15.542969 L 31.917969 15.367188 L 32.46875 14.996094 L 32.511719 14.886719 L 32.644531 14.210938 L 32.644531 14.035156 L 32.578125 13.96875 L 32.578125 13.246094 L 32.511719 13.179688 L 32.511719 12.023438 L 32.46875 11.914062 L 32.46875 11.367188 L 32.511719 11.367188 L 32.46875 11.300781 L 32.46875 10.511719 L 32.402344 10.382812 L 32.402344 9.964844 L 32.335938 9.855469 L 32.335938 9.792969 L 32.269531 9.59375 L 32.269531 9.355469 L 32.226562 9.246094 L 32.226562 9.046875 L 32.160156 8.9375 L 32.160156 8.328125 L 32.09375 8.152344 L 32.09375 7.976562 L 32.027344 7.847656 L 32.027344 7.605469 L 31.917969 7.367188 L 31.917969 7.300781 L 31.851562 7.167969 L 31.851562 7.125 L 31.785156 6.992188 L 31.476562 6.992188 L 31.0625 7.433594 L 30.996094 7.433594 L 30.996094 7.542969 L 30.820312 7.714844 L 30.625 8.085938 L 30.273438 8.460938 L 30.074219 8.808594 L 29.832031 9.117188 L 29.769531 9.179688 L 29.769531 9.246094 L 29.722656 9.355469 L 29.65625 9.597656 L 29.59375 9.664062 L 29.59375 9.726562 L 29.480469 9.902344 L 29.480469 10.097656 L 29.351562 10.207031 L 29.351562 10.273438 L 29.285156 10.382812 L 29.21875 10.449219 L 29.21875 10.582031 L 29.175781 10.691406 L 29.175781 10.820312 L 29.042969 10.996094 L 29.042969 11.0625 L 28.976562 11.195312 L 28.976562 11.238281 L 28.933594 11.367188 L 28.867188 11.433594 L 28.867188 11.542969 L 28.800781 11.742188 L 28.667969 11.851562 L 28.667969 11.980469 L 28.625 12.089844 L 28.625 12.15625 L 28.558594 12.222656 L 28.558594 12.527344 L 28.492188 12.636719 L 28.492188 12.8125 L 28.449219 12.878906 L 28.449219 13.117188 L 28.382812 13.316406 L 28.253906 13.554688 L 28.253906 13.621094 L 28.121094 13.863281 L 28.121094 13.972656 L 28.078125 14.167969 L 28.078125 14.34375 L 28.121094 14.453125 L 28.1875 14.519531 L 28.1875 14.648438 L 28.320312 14.757812 L 29.042969 15.238281 L 28.933594 15.546875 L 28.078125 15.128906 L 27.570312 15 C 27.527344 14.957031 27.460938 15 27.398438 15.066406 L 27.636719 15.238281 C 27.835938 15.238281 28.011719 15.304688 28.121094 15.4375 L 27.945312 15.546875 L 27.835938 15.742188 L 28.253906 15.742188 L 28.625 15.785156 L 28.933594 15.917969 L 28.867188 16.050781 L 28.382812 16.09375 L 28.121094 16.160156 L 28.121094 16.222656 L 28.449219 16.222656 L 28.625 16.160156 L 28.867188 16.222656 L 28.867188 16.398438 L 28.800781 16.53125 L 28.1875 16.597656 L 28.121094 16.707031 L 28.1875 16.769531 L 28.449219 16.707031 L 28.667969 16.597656 L 28.867188 16.640625 L 28.867188 16.835938 L 28.667969 16.945312 L 28.734375 17.121094 L 28.734375 17.253906 L 28.558594 17.316406 L 28.492188 17.1875 L 28.734375 17.121094 L 28.667969 16.945312 L 28.316406 17.121094 C 28.011719 17.1875 27.902344 17.253906 27.902344 17.316406 L 27.527344 17.492188 L 27.460938 17.558594 L 27.351562 17.492188 L 27.394531 17.316406 L 27.394531 17.121094 L 27.351562 17.011719 L 26.671875 16.835938 L 26.671875 16.640625 L 26.429688 16.160156 L 25.949219 15.546875 L 25.640625 15.371094 L 25.464844 15 L 25.160156 14.695312 L 25.160156 14.585938 L 25.09375 14.519531 L 25.027344 14.34375 L 24.675781 13.863281 L 24.304688 13.558594 L 23.515625 13.074219 L 23.515625 12.945312 L 23.449219 12.8125 L 23.382812 12.769531 L 23.382812 12.15625 L 23.316406 12.089844 L 23.316406 12.027344 L 23.273438 11.917969 L 23.273438 11.851562 L 23.210938 11.671875 L 23.144531 11.671875 L 23.144531 11.542969 L 23.035156 11.367188 L 22.96875 11.234375 L 22.96875 11.191406 L 22.59375 10.382812 L 22.59375 10.273438 L 22.53125 10.207031 L 22.484375 10.03125 L 22.417969 9.96875 L 22.246094 9.96875 L 22.113281 10.03125 L 22.113281 10.140625 L 22.046875 10.207031 L 21.980469 10.339844 L 21.980469 10.515625 L 21.9375 10.644531 L 21.9375 10.886719 L 21.871094 11.058594 L 21.871094 11.542969 L 21.738281 11.671875 L 21.628906 11.476562 L 21.386719 10.996094 L 21.386719 10.929688 L 21.320312 10.820312 L 21.320312 10.753906 L 21.257812 10.644531 L 21.082031 10.449219 L 20.949219 10.449219 L 20.882812 10.578125 L 20.882812 10.6875 L 20.839844 10.820312 L 20.839844 10.996094 L 20.773438 11.125 L 20.773438 11.671875 L 20.710938 11.847656 L 20.710938 12.21875 L 20.777344 12.285156 L 20.710938 12.285156 L 20.710938 12.636719 L 20.777344 12.636719 L 20.777344 13.007812 L 20.839844 13.074219 L 20.839844 13.183594 L 20.886719 13.3125 L 20.886719 14.515625 L 20.535156 15.238281 L 20.535156 15.542969 L 20.46875 15.609375 L 20.46875 15.980469 L 20.601562 15.914062 L 20.644531 15.785156 L 20.710938 15.738281 L 20.777344 15.609375 L 20.839844 15.675781 L 20.839844 15.738281 L 20.710938 15.980469 L 20.777344 16.089844 L 20.839844 16.15625 L 20.886719 16.15625 L 20.886719 16.222656 L 20.839844 16.222656 L 20.777344 16.332031 L 20.644531 16.394531 L 20.601562 16.332031 L 20.601562 15.914062 L 20.46875 15.980469 L 20.402344 15.980469 L 20.46875 16.15625 L 20.46875 16.460938 L 20.535156 16.59375 L 20.535156 16.941406 L 20.601562 17.117188 L 20.601562 17.621094 L 20.535156 17.621094 L 20.535156 17.96875 L 20.46875 18.035156 L 20.46875 18.40625 L 20.535156 18.515625 L 20.535156 18.714844 L 20.601562 18.824219 L 20.644531 19.128906 L 20.710938 19.261719 L 20.84375 19.609375 L 20.953125 19.742188 L 21.082031 19.984375 L 20.84375 20.222656 L 20.710938 20.398438 L 20.535156 20.398438 L 20.359375 20.527344 L 20.292969 20.398438 L 20.292969 20.222656 L 20.160156 20.15625 L 20.050781 20.351562 L 19.921875 20.59375 L 19.921875 20.636719 L 19.546875 21.007812 L 19.4375 21.382812 L 19.304688 21.488281 L 19.195312 21.6875 L 19.0625 21.925781 L 19 21.972656 L 19 22.101562 L 18.953125 22.167969 L 18.890625 22.277344 L 18.757812 22.472656 L 18.757812 22.519531 L 18.710938 22.605469 L 18.515625 22.957031 L 18.40625 23.066406 L 18.273438 23.261719 L 18.273438 23.304688 L 18.164062 23.566406 L 18.097656 23.609375 L 18.03125 23.742188 L 17.964844 23.808594 L 17.921875 23.984375 L 17.855469 24.113281 L 17.855469 24.246094 L 17.789062 24.355469 L 17.789062 24.464844 L 17.726562 24.597656 L 17.726562 24.660156 L 17.660156 24.792969 L 17.660156 24.945312 L 17.613281 25.078125 L 17.613281 25.210938 L 17.550781 25.449219 L 17.550781 25.558594 L 17.484375 25.691406 L 17.484375 25.886719 L 17.417969 25.929688 L 17.175781 26.28125 L 17 26.433594 L 15.53125 26.828125 L 14.808594 27.265625 L 14.808594 27.375 L 14.742188 27.507812 L 14.675781 27.570312 L 14.675781 28.117188 L 14.742188 28.226562 L 14.742188 28.425781 L 14.632812 28.597656 L 14.433594 29.144531 L 14.433594 29.210938 L 14.257812 29.449219 L 13.890625 29.449219 L 13.84375 29.386719 L 13.648438 29.320312 L 13.539062 29.320312 L 13.339844 29.386719 L 13.40625 29.515625 L 13.472656 29.5625 L 13.957031 29.691406 L 14.261719 29.800781 L 14.328125 29.933594 L 14.328125 30.414062 L 14.261719 30.480469 L 13.582031 30.585938 L 12.308594 31.089844 L 12.308594 31.199219 L 12.375 31.332031 L 14.195312 30.71875 L 14.328125 30.847656 L 14.261719 30.960938 L 14.261719 31.089844 L 14.195312 31.132812 L 14.195312 31.199219 L 14.128906 31.332031 L 14.128906 31.441406 L 14.085938 31.507812 L 14.085938 31.636719 L 13.78125 31.8125 L 13.582031 31.984375 L 14.085938 31.921875 L 14.128906 31.984375 L 14.195312 32.117188 L 14.261719 32.292969 L 14.261719 32.359375 L 14.328125 32.46875 L 14.328125 32.535156 L 14.394531 32.730469 L 14.394531 32.773438 L 14.4375 32.90625 L 14.4375 32.96875 L 14.503906 33.015625 L 14.570312 33.144531 L 14.503906 33.277344 L 13.957031 33.386719 L 13.648438 33.519531 L 13.539062 33.628906 L 13.539062 33.933594 L 13.582031 34 L 13.539062 34.066406 L 12.925781 34.960938 L 12.617188 35.15625 L 12.3125 35.441406 L 12.136719 35.574219 L 12.136719 35.746094 L 12.070312 35.8125 L 11.761719 36.054688 L 11.652344 36.230469 L 10.796875 37.148438 L 10.25 37.585938 L 9.941406 37.757812 L 9.636719 37.867188 L 9.765625 38.128906 L 9.152344 38.71875 L 9.023438 38.917969 L 9.023438 38.960938 L 9.085938 39.15625 L 9.023438 39.203125 L 8.78125 39.507812 L 8.671875 39.640625 L 8.539062 39.878906 L 8.539062 40.183594 L 8.363281 40.382812 L 8.296875 40.535156 L 8.1875 40.664062 L 8.1875 40.796875 L 8.121094 40.929688 L 8.121094 41.039062 L 7.683594 41.476562 L 7.683594 41.585938 L 7.332031 42.066406 L 7.332031 42.242188 L 7.265625 42.308594 L 7.265625 42.4375 L 7.199219 42.679688 L 7.199219 43.09375 L 7.023438 43.335938 L 6.957031 43.398438 L 6.894531 43.507812 L 6.847656 43.707031 L 6.78125 43.773438 L 6.71875 43.945312 L 6.78125 43.945312 L 6.78125 44.054688 L 6.847656 44.1875 L 6.847656 44.363281 L 6.78125 44.492188 L 6.78125 44.734375 L 6.71875 44.84375 L 6.71875 44.910156 L 6.652344 45.039062 L 6.652344 45.148438 L 6.71875 45.214844 L 6.847656 45.105469 L 6.847656 44.84375 L 6.894531 44.800781 L 6.894531 44.667969 L 6.957031 44.558594 L 6.957031 44.1875 L 7.023438 44.054688 L 7.089844 44.011719 L 7.199219 43.816406 L 7.199219 43.773438 L 7.132812 43.640625 L 7.199219 43.574219 L 7.441406 43.226562 L 7.683594 42.960938 L 7.574219 42.722656 L 7.636719 42.722656 L 8.601562 42.308594 L 8.976562 42.308594 L 9.394531 42.613281 L 9.523438 42.722656 L 9.523438 42.851562 L 9.570312 42.917969 L 9.875 43.15625 L 10.117188 43.15625 L 10.3125 42.917969 L 10.3125 42.785156 L 10.117188 42.851562 L 10.074219 42.917969 L 9.875 42.722656 L 9.875 42.675781 L 9.765625 42.480469 L 9.632812 42.371094 L 9.523438 42.132812 L 9.457031 42.066406 L 9.019531 41.933594 L 8.425781 42.066406 L 8.1875 42.238281 L 7.746094 42.4375 L 7.636719 42.371094 L 7.636719 42.175781 L 7.683594 42.066406 L 7.746094 42.066406 L 7.746094 41.933594 L 7.8125 41.757812 L 7.988281 41.585938 L 8.054688 41.476562 L 8.1875 41.34375 L 8.363281 41.277344 L 8.601562 41.039062 L 8.84375 40.839844 C 9.019531 40.730469 9.085938 40.667969 9.152344 40.667969 L 9.832031 40.292969 L 9.941406 40.425781 L 9.941406 40.601562 L 10.007812 40.839844 L 10.007812 41.082031 L 9.941406 41.386719 L 10.007812 41.476562 L 10.007812 41.695312 L 10.074219 41.695312 L 10.074219 42.4375 L 10.117188 42.675781 L 10.117188 42.851562 L 10.3125 42.785156 L 10.359375 42.722656 L 10.425781 42.609375 L 10.425781 42.066406 L 10.359375 41.933594 L 10.359375 41.628906 L 10.3125 41.628906 L 10.3125 40.425781 L 10.25 40.378906 L 10.25 40.25 L 10.117188 40.054688 L 9.875 40.007812 L 9.632812 40.121094 L 9.570312 40.183594 L 8.667969 40.664062 L 8.78125 40.292969 L 8.78125 40.183594 L 8.84375 40.054688 L 9.328125 39.703125 L 9.328125 39.574219 L 9.152344 39.574219 L 9.019531 39.636719 L 9.085938 39.507812 L 9.394531 39.199219 L 9.941406 38.785156 L 10.007812 38.542969 L 9.765625 38.542969 L 9.765625 38.480469 L 10.3125 37.996094 L 10.359375 37.824219 L 10.730469 37.453125 L 11.519531 36.90625 L 11.960938 36.488281 L 12.265625 36.226562 L 12.75 35.941406 L 14.261719 35.332031 L 15.050781 35.15625 L 15.117188 35.332031 L 15.226562 35.398438 L 16.082031 35.636719 C 16.390625 35.503906 16.566406 35.503906 16.699219 35.636719 L 17.179688 35.878906 L 17.550781 35.988281 L 17.859375 36.226562 L 18.167969 36.421875 L 18.648438 36.839844 L 18.957031 37.035156 L 19.261719 37.144531 L 19.8125 37.515625 L 19.988281 37.453125 L 19.855469 37.277344 L 19.503906 37.035156 L 18.957031 36.773438 L 17.617188 35.746094 L 16.523438 35.398438 L 16.148438 35.398438 C 16.039062 35.265625 15.90625 35.199219 15.777344 35.199219 L 15.425781 35.089844 L 14.8125 35.023438 L 13.714844 35.199219 C 13.40625 35.332031 13.167969 35.441406 13.035156 35.503906 L 12.75 35.703125 L 12.441406 35.746094 L 12.441406 35.636719 L 12.992188 35.15625 L 13.035156 35.15625 L 13.296875 34.957031 L 13.339844 34.847656 L 13.339844 34.78125 L 13.539062 34.609375 L 13.714844 34.300781 L 14.019531 34.0625 L 14.085938 33.929688 L 14.195312 33.753906 L 14.261719 33.625 L 14.808594 33.449219 L 14.875 33.382812 L 14.746094 33.210938 L 14.746094 33.078125 L 14.808594 32.96875 L 14.746094 32.664062 L 14.679688 32.597656 L 14.4375 32.117188 L 14.4375 31.808594 L 14.394531 31.632812 L 14.394531 31.328125 L 14.4375 31.199219 L 14.4375 31.132812 L 14.503906 31.023438 L 14.503906 30.890625 L 14.570312 30.847656 L 14.570312 30.542969 L 14.636719 30.300781 L 14.636719 29.929688 L 14.570312 29.796875 L 14.570312 29.6875 L 14.636719 29.558594 L 14.636719 29.382812 L 14.679688 29.25 L 14.679688 29.207031 L 14.746094 29.074219 L 14.8125 29.011719 L 14.8125 28.898438 L 14.875 28.769531 L 15.117188 28.527344 L 14.984375 28.15625 L 14.941406 27.742188 L 15.183594 27.324219 L 15.425781 27.261719 L 15.773438 27.433594 C 15.972656 27.433594 16.148438 27.566406 16.324219 27.742188 L 16.324219 27.808594 L 16.519531 28.15625 L 16.519531 28.417969 L 16.5625 28.527344 L 16.761719 28.417969 L 16.761719 27.980469 L 16.628906 27.742188 L 16.082031 27.257812 L 15.730469 27.085938 L 15.90625 26.953125 L 16.082031 26.886719 L 16.210938 26.886719 L 16.210938 27.019531 L 16.453125 27.019531 L 16.761719 26.953125 L 16.828125 27.019531 L 16.828125 27.128906 L 17.550781 27.128906 L 17.617188 27.324219 L 17.484375 27.433594 L 17.921875 27.632812 L 17.921875 27.675781 L 17.859375 27.742188 L 17.859375 27.804688 C 17.921875 27.871094 17.96875 27.914062 18.164062 27.914062 L 18.207031 27.804688 L 18.035156 27.632812 L 18.035156 27.5 L 18.097656 27.5 L 18.035156 27.433594 L 17.792969 27.085938 L 17.660156 26.953125 L 17.417969 26.886719 L 17.246094 26.714844 L 17.246094 26.542969 L 17.660156 26.167969 L 17.792969 26.234375 L 17.925781 26.234375 L 17.96875 26.167969 L 17.96875 25.886719 L 18.035156 25.886719 L 18.035156 25.558594 L 18.101562 25.449219 L 18.101562 25.382812 L 18.167969 25.25 L 18.167969 25.011719 L 17.96875 25.207031 L 17.96875 25.339844 L 17.925781 25.382812 L 17.859375 25.6875 L 17.859375 25.796875 L 17.792969 25.730469 L 17.859375 25.625 L 17.859375 25.382812 L 17.925781 25.078125 L 17.925781 24.902344 L 17.96875 24.707031 L 17.96875 24.660156 L 18.035156 24.53125 L 18.035156 24.398438 L 18.101562 24.355469 L 18.101562 24.246094 L 18.210938 23.984375 L 18.277344 23.917969 L 18.648438 23.195312 L 18.714844 23.152344 L 18.824219 22.890625 L 18.890625 22.714844 L 19 22.519531 L 19 22.410156 L 19.066406 22.410156 L 19.199219 22.101562 L 19.375 21.796875 L 19.4375 21.730469 L 19.546875 21.488281 L 19.679688 21.316406 L 19.8125 21.183594 L 19.8125 21.378906 L 19.855469 21.488281 L 19.988281 21.316406 L 20.097656 21.007812 L 20.164062 20.941406 L 20.164062 20.832031 L 20.359375 20.832031 L 20.402344 20.941406 L 20.601562 20.832031 L 20.953125 20.460938 L 20.953125 20.394531 L 21.191406 20.15625 L 21.695312 20.222656 L 21.808594 20.15625 L 21.433594 20.046875 L 21.324219 19.804688 L 21.191406 19.675781 L 20.953125 19.195312 L 20.886719 19.128906 L 20.886719 18.996094 L 20.839844 18.953125 L 20.839844 18.820312 L 20.777344 18.710938 L 20.777344 16.832031 L 20.710938 16.832031 L 20.710938 16.632812 L 20.777344 16.589844 L 20.949219 16.523438 L 21.082031 16.394531 L 21.082031 16.042969 L 21.148438 16.042969 L 21.082031 15.847656 L 21.082031 15.605469 L 20.949219 15.496094 L 20.777344 15.429688 L 20.777344 15.234375 L 21.082031 14.6875 L 21.191406 14.578125 L 21.191406 14.515625 L 21.257812 14.449219 L 21.191406 14.339844 L 21.191406 14.273438 L 21.148438 14.207031 L 21.148438 13.179688 L 21.082031 13.113281 L 21.082031 12.9375 L 21.015625 12.875 L 21.015625 12.765625 L 20.949219 12.566406 L 20.949219 11.671875 L 21.015625 11.609375 L 21.015625 11.300781 L 21.082031 11.191406 L 21.082031 10.996094 L 21.191406 11.125 L 21.191406 11.191406 L 21.257812 11.238281 L 21.257812 11.300781 L 21.324219 11.367188 L 21.324219 11.433594 L 21.390625 11.476562 L 21.390625 11.542969 L 21.433594 11.609375 L 21.566406 11.980469 L 21.632812 12.089844 L 21.699219 12.15625 L 21.699219 13.007812 L 21.632812 13.007812 L 21.632812 14.101562 L 21.699219 14.101562 L 21.808594 13.972656 L 21.875 13.972656 L 21.875 12.941406 L 21.9375 12.769531 L 21.9375 12.398438 L 21.984375 11.980469 L 21.984375 11.742188 L 22.050781 11.675781 L 22.050781 11.542969 L 22.113281 11.542969 L 22.113281 10.820312 L 22.179688 10.820312 L 22.179688 10.691406 L 22.246094 10.648438 L 22.246094 10.515625 L 22.289062 10.515625 L 22.421875 10.648438 L 22.488281 10.757812 L 22.488281 10.820312 L 22.53125 10.886719 L 22.597656 10.996094 L 22.597656 11.0625 L 22.664062 11.128906 L 22.664062 11.195312 L 22.730469 11.367188 L 22.730469 11.433594 L 22.773438 11.433594 L 22.773438 11.542969 L 22.839844 11.675781 L 22.839844 11.742188 L 22.90625 11.742188 L 22.90625 11.851562 L 23.039062 11.980469 L 23.039062 12.089844 L 23.082031 12.089844 L 23.082031 12.527344 L 23.148438 12.769531 L 23.148438 12.878906 L 23.210938 13.074219 L 23.210938 13.117188 L 23.324219 13.183594 L 23.453125 13.359375 L 24.308594 13.863281 L 24.683594 14.210938 L 24.683594 14.34375 L 24.726562 14.453125 L 24.792969 14.453125 L 24.792969 14.585938 L 24.859375 14.652344 L 24.859375 14.695312 L 25.035156 14.890625 L 25.101562 15 L 25.164062 15.066406 L 25.210938 15.195312 L 25.277344 15.242188 L 25.277344 15.308594 L 25.40625 15.503906 L 25.582031 15.679688 L 25.757812 15.789062 L 25.890625 15.851562 L 25.957031 15.984375 L 26.066406 16.09375 L 26.195312 16.398438 L 26.261719 16.398438 L 26.261719 16.53125 L 26.308594 16.597656 L 26.371094 16.773438 L 26.371094 16.839844 L 26.480469 16.949219 L 26.480469 17.011719 L 26.921875 17.1875 L 26.988281 17.382812 L 26.921875 17.429688 L 26.855469 17.558594 L 24.792969 18.347656 C 24.617188 18.414062 24.421875 18.476562 24.378906 18.519531 L 22.972656 19.132812 L 22.359375 19.550781 L 22.25 19.679688 L 22.183594 19.679688 L 22.117188 19.8125 L 21.984375 19.921875 L 21.941406 20.050781 L 21.8125 20.164062 L 21.699219 20.226562 L 21.699219 20.292969 L 21.746094 20.402344 L 21.984375 20.292969 L 22.488281 19.8125 L 23.28125 19.199219 L 23.324219 19.265625 L 23.628906 19.199219 L 24.96875 18.523438 L 28.632812 17.496094 L 30.515625 17.386719 L 33.433594 17.667969 L 33.609375 17.667969 L 33.851562 17.734375 L 33.980469 17.867188 L 33.917969 17.976562 L 34.15625 18.171875 L 33.851562 18.28125 L 33.851562 18.414062 L 34.464844 18.414062 L 34.835938 18.480469 L 35.1875 18.480469 L 35.144531 18.21875 L 35.144531 18.171875 L 35.253906 18.105469 L 35.253906 18.21875 L 35.144531 18.21875 L 35.1875 18.480469 L 35.320312 18.589844 L 35.496094 18.65625 L 35.5625 18.523438 L 35.5625 18.21875 L 35.628906 18.105469 L 35.628906 17.867188 L 35.691406 17.734375 L 35.691406 17.125 L 35.738281 16.949219 L 35.738281 16.53125 L 35.628906 16.292969 L 35.5625 16.226562 L 35.453125 15.988281 L 35.386719 15.746094 L 35.253906 15.550781 L 35.011719 15.375 L 34.835938 15.070312 L 34.835938 14.960938 L 34.765625 14.820312 L 34.832031 14.757812 L 34.832031 14.691406 L 34.898438 14.582031 L 34.941406 14.515625 L 34.941406 14.40625 L 35.25 13.96875 L 35.25 13.859375 L 35.316406 13.726562 L 35.382812 13.664062 L 35.492188 13.488281 L 35.558594 13.3125 L 35.558594 13.117188 L 35.691406 12.875 L 35.734375 12.703125 L 35.800781 12.636719 L 35.996094 12.285156 L 35.996094 12.023438 L 36.105469 11.785156 L 36.105469 11.738281 L 36.171875 11.609375 L 36.171875 11.476562 L 36.238281 11.433594 L 36.28125 11.300781 L 36.28125 11.191406 L 36.347656 11.058594 L 36.347656 10.996094 L 36.480469 10.753906 L 36.589844 10.644531 L 36.589844 10.511719 L 36.785156 10.273438 L 36.832031 10.140625 L 36.832031 10.03125 L 36.960938 9.902344 L 37.136719 9.484375 L 37.335938 9.3125 L 37.378906 9.179688 L 37.378906 9.113281 L 37.445312 9.046875 L 37.511719 8.9375 L 37.578125 8.761719 L 37.6875 8.5 L 37.753906 8.457031 L 38.234375 7.714844 L 38.429688 7.367188 L 38.605469 7.167969 L 38.714844 6.929688 L 38.847656 6.753906 L 38.914062 6.621094 L 38.980469 6.578125 L 39.152344 6.207031 L 39.265625 6.074219 L 39.460938 5.792969 L 39.636719 5.726562 Z M 39.8125 5.792969 " fill-opacity="1" fill-rule="nonzero"/></g><path fill="#000000" d="M 22.246094 15.914062 L 22.179688 15.675781 L 21.9375 15.609375 L 21.871094 15.675781 L 21.808594 15.785156 L 21.871094 15.980469 L 21.9375 16.089844 L 21.980469 16.089844 L 22.179688 16.046875 L 22.246094 16.046875 Z M 22.246094 15.914062 " fill-opacity="1" fill-rule="nonzero"/></svg>